<?xml version="1.0" encoding="UTF-8"?>
<svg width="57px" height="96px" viewBox="0 0 57 96" version="1.1" xmlns="http://www.w3.org/2000/svg" xmlns:xlink="http://www.w3.org/1999/xlink">
    <title>Logo/Logo_56x96</title>
    <defs>
        <linearGradient x1="44.7039559%" y1="-31.2485162%" x2="54.6863056%" y2="100%" id="linearGradient-1">
            <stop stop-color="#FDFDFD" stop-opacity="0.311216128" offset="0%"></stop>
            <stop stop-color="#FAFBFB" stop-opacity="0.0970826049" offset="100%"></stop>
        </linearGradient>
    </defs>
    <g id="Logo/Logo_56x96" stroke="none" stroke-width="1" fill="none" fill-rule="evenodd">
        <g id="Path-2">
            <g id="Mask" fill="#50584B">
                <path d="M31.212131,0.55797129 C32.7823341,1.23137792 34.0355044,2.463977 34.7201497,4.0084047 L35.6024318,6.00413974 C49.8674773,38.3622429 57,59.0141282 57,67.9597956 C57,83.4459729 44.2401154,96 28.5,96 C12.7598846,96 0,83.4459729 0,67.9597956 C0,59.0132154 7.13397846,38.3580281 21.4019354,5.99423368 L22.2798507,4.0084047 C23.7777192,0.629502488 27.7768373,-0.91530917 31.212131,0.55797129 Z M30.0729778,33.7482726 C28.2816074,32.9931598 26.2011204,33.7958741 25.4260799,35.5411852 L25.0460349,36.3994012 C18.901334,50.3148311 15.8289835,59.2274898 15.8289835,63.137377 C15.8289835,70.0597207 21.5779425,76.8191416 28.6696429,76.8191416 C35.7613432,76.8191416 41.5103022,70.0597207 41.5103022,63.137377 C41.5103022,59.1476962 38.3112701,49.9489655 31.9132058,35.5411852 C31.5562014,34.737248 30.8981311,34.0960979 30.0729778,33.7482726 Z" id="Shape"></path>
            </g>
            <path d="M29.5852432,-0.116181195 C32.4181336,5.48359339 30.4702745,16.4263421 23.7416658,32.7120649 C13.6487529,57.1406492 5.51051194,79.1491237 27.0565822,85.5211879 C48.6026526,91.8932522 58.1267385,68.4387097 47.5744226,54.3495968 C37.0221068,40.2604839 31.550388,26.3686662 35.492037,9.9843885 C38.119803,-0.938463296 36.1508717,-4.30531986 29.5852432,-0.116181195 Z" fill="url(#linearGradient-1)"></path>
        </g>
    </g>
</svg>