<?xml version="1.0" encoding="UTF-8"?>
<svg width="182px" height="310px" viewBox="0 0 182 310" version="1.1" xmlns="http://www.w3.org/2000/svg" xmlns:xlink="http://www.w3.org/1999/xlink">
    <title>Artboard</title>
    <defs>
        <linearGradient x1="65.293551%" y1="165.034876%" x2="37.3977009%" y2="-42.0350098%" id="linearGradient-1">
            <stop stop-color="#253155" offset="0%"></stop>
            <stop stop-color="#4C5F8E" offset="100%"></stop>
        </linearGradient>
        <linearGradient x1="44.8219798%" y1="-31.2485162%" x2="54.5818699%" y2="100%" id="linearGradient-2">
            <stop stop-color="#FDFDFD" stop-opacity="0.311216128" offset="0%"></stop>
            <stop stop-color="#FAFBFB" stop-opacity="0.0970826049" offset="100%"></stop>
        </linearGradient>
    </defs>
    <g id="Artboard" stroke="none" stroke-width="1" fill="none" fill-rule="evenodd">
        <g id="Path-2">
            <g id="Mask" fill="url(#linearGradient-1)">
                <path d="M99.6597867,1.80178229 C104.673418,3.97632453 108.674768,7.9565924 110.860829,12.9438069 L113.67794,19.3883679 C159.22598,123.878076 182,190.566456 182,219.453507 C182,269.460954 141.257912,310 91,310 C40.7420878,310 0,269.460954 0,219.453507 C0,190.563508 22.7786681,123.864466 68.3360042,19.3563796 L71.1391725,12.9438069 C75.9218403,2.03276845 88.6909542,-2.95568586 99.6597867,1.80178229 Z M96.0224904,108.978797 C90.3026763,106.540412 83.6597177,109.13251 81.185027,114.768411 L79.97155,117.539733 C60.3516278,162.474976 50.5416667,191.255436 50.5416667,203.881113 C50.5416667,226.234515 68.8979919,248.061811 91.5416667,248.061811 C114.185341,248.061811 132.541667,226.234515 132.541667,203.881113 C132.541667,190.997769 122.327213,161.293535 101.898306,114.768411 C100.758397,112.172363 98.6571905,110.101983 96.0224904,108.978797 Z" id="Shape"></path>
            </g>
            <path d="M94.4651623,-0.375168441 C103.510532,17.707437 97.2910518,53.0433964 75.8067225,105.63271 C43.5802285,184.51668 17.594968,255.585712 86.3911924,276.162169 C155.187417,296.738627 185.597656,221 151.904297,175.503906 C118.210938,130.007812 100.739835,85.1488179 113.325451,32.2412545 C121.715862,-3.03045439 115.429099,-13.9025954 94.4651623,-0.375168441 Z" id="inside-shadow" fill="url(#linearGradient-2)"></path>
        </g>
    </g>
</svg>