<?xml version="1.0" encoding="UTF-8"?>
<svg width="254px" height="40px" viewBox="0 0 254 40" version="1.1" xmlns="http://www.w3.org/2000/svg" xmlns:xlink="http://www.w3.org/1999/xlink">
    <title>MINDSET@3x</title>
    <g id="Style-Guide" stroke="none" stroke-width="1" fill="none" fill-rule="evenodd">
        <g id="Logo/Text_254x40" fill="#263256" fill-rule="nonzero">
            <path d="M7.75811801,39.2941176 L7.75811801,25.2352941 C7.75811801,24.2941176 7.7189356,23.254902 7.64057077,22.1176471 C7.56220594,20.9803922 7.4642499,19.8333333 7.34670266,18.6764706 C7.22915542,17.5196078 7.11160818,16.3823529 6.99406093,15.2647059 C6.87651369,14.1470588 6.75896645,13.1176471 6.64141921,12.1764706 L6.64141921,12.1764706 L6.87651369,12.1764706 L9.932742,21.2941176 L15.3986888,35.9411765 L20.1593521,35.9411765 L25.6252989,21.2941176 L28.7403008,12.1764706 L28.9753953,12.1764706 C28.8578481,13.1176471 28.7403008,14.1470588 28.6227536,15.2647059 C28.5052063,16.3823529 28.3876591,17.5196078 28.2701118,18.6764706 C28.1525646,19.8333333 28.0546086,20.9803922 27.9762437,22.1176471 C27.8978789,23.254902 27.8586965,24.2941176 27.8586965,25.2352941 L27.8586965,25.2352941 L27.8586965,39.2941176 L35.7343617,39.2941176 L35.7343617,0.941176471 L26.3305823,0.941176471 L20.2768993,18 C19.8850752,19.1372549 19.5226379,20.3039216 19.1895874,21.5 C18.8565368,22.6960784 18.4940995,23.8823529 18.1022754,25.0588235 L18.1022754,25.0588235 L17.8671809,25.0588235 C17.4753567,23.8823529 17.1031238,22.6960784 16.7504821,21.5 C16.3978403,20.3039216 16.0256074,19.1372549 15.6337833,18 L15.6337833,18 L9.46255303,0.941176471 L0,0.941176471 L0,39.2941176 L7.75811801,39.2941176 Z M57.9965034,39.2941176 L57.9965034,0.941176471 L49.3567811,0.941176471 L49.3567811,39.2941176 L57.9965034,39.2941176 Z M79.8472297,39.2941176 L79.8472297,25.7058824 C79.8472297,23.4313725 79.7198869,21.0784314 79.4652012,18.6470588 C79.2105155,16.2156863 78.9852166,13.9411765 78.7893045,11.8235294 L78.7893045,11.8235294 L79.024399,11.8235294 L82.7859108,20.1764706 L92.7774264,39.2941176 L101.652243,39.2941176 L101.652243,0.941176471 L93.4239362,0.941176471 L93.4239362,14.4705882 C93.4239362,16.745098 93.5512791,19.1372549 93.8059648,21.6470588 C94.0606505,24.1568627 94.2859494,26.4313725 94.4818614,28.4705882 L94.4818614,28.4705882 L94.2467669,28.4705882 L90.4852552,20 L80.4937396,0.941176471 L71.6189227,0.941176471 L71.6189227,39.2941176 L79.8472297,39.2941176 Z M126.559198,39.2941176 C129.380332,39.2941176 131.936984,38.9019608 134.229155,38.1176471 C136.521327,37.3333333 138.490243,36.1470588 140.135904,34.5588235 C141.781566,32.9705882 143.054994,30.9607843 143.95619,28.5294118 C144.857385,26.0980392 145.307983,23.2352941 145.307983,19.9411765 C145.307983,16.6470588 144.857385,13.8039216 143.95619,11.4117647 C143.054994,9.01960784 141.761975,7.04901961 140.077131,5.5 C138.392287,3.95098039 136.374393,2.80392157 134.023448,2.05882353 C131.672503,1.31372549 129.02769,0.941176471 126.089009,0.941176471 L126.089009,0.941176471 L115.274663,0.941176471 L115.274663,39.2941176 L126.559198,39.2941176 Z M125.560046,32.2941176 L123.914385,32.2941176 L123.914385,7.94117647 L125.560046,7.94117647 C127.205708,7.94117647 128.694639,8.1372549 130.026841,8.52941176 C131.359044,8.92156863 132.495334,9.57843137 133.435712,10.5 C134.376089,11.4215686 135.11076,12.6568627 135.639722,14.2058824 C136.168685,15.754902 136.433166,17.6666667 136.433166,19.9411765 C136.433166,22.254902 136.168685,24.1960784 135.639722,25.7647059 C135.11076,27.3333333 134.376089,28.5980392 133.435712,29.5588235 C132.495334,30.5196078 131.359044,31.2156863 130.026841,31.6470588 C128.694639,32.0784314 127.205708,32.2941176 125.560046,32.2941176 L125.560046,32.2941176 Z M168.62805,40 C170.665535,40 172.487518,39.7156863 174.093997,39.1470588 C175.700476,38.5784314 177.07186,37.7941176 178.20815,36.7941176 C179.34444,35.7941176 180.216249,34.627451 180.823576,33.2941176 C181.430904,31.9607843 181.734567,30.5294118 181.734567,29 C181.734567,27.5882353 181.52886,26.3431373 181.117444,25.2647059 C180.706029,24.1862745 180.14768,23.245098 179.442396,22.4411765 C178.737113,21.6372549 177.894691,20.9313725 176.91513,20.3235294 C175.93557,19.7156863 174.897236,19.1764706 173.800129,18.7058824 L173.800129,18.7058824 L168.334182,16.3529412 C167.550533,16.0392157 166.786476,15.6960784 166.042011,15.3235294 C165.297545,14.9509804 164.611852,14.5196078 163.984934,14.0294118 C163.358015,13.5392157 162.858439,12.9705882 162.486206,12.3235294 C162.113974,11.6764706 161.927857,10.8823529 161.927857,9.94117647 C161.927857,8.17647059 162.584162,6.79411765 163.896773,5.79411765 C165.209384,4.79411765 166.943206,4.29411765 169.098239,4.29411765 C170.90063,4.29411765 172.516904,4.61764706 173.947063,5.26470588 C175.377221,5.91176471 176.680036,6.80392157 177.855508,7.94117647 L177.855508,7.94117647 L180.500321,4.76470588 C179.128937,3.35294118 177.463684,2.20588235 175.504564,1.32352941 C173.545443,0.441176471 171.410001,0 169.098239,0 C167.33503,0 165.718756,0.254901961 164.249415,0.764705882 C162.780075,1.2745098 161.506646,1.99019608 160.42913,2.91176471 C159.351613,3.83333333 158.509191,4.92156863 157.901864,6.17647059 C157.294537,7.43137255 156.990873,8.78431373 156.990873,10.2352941 C156.990873,11.6470588 157.225967,12.8921569 157.696156,13.9705882 C158.166345,15.0490196 158.773673,15.9803922 159.518139,16.7647059 C160.262604,17.5490196 161.105026,18.2156863 162.045404,18.7647059 C162.985782,19.3137255 163.906569,19.7843137 164.807764,20.1764706 L164.807764,20.1764706 L170.332485,22.5882353 C171.23368,23.0196078 172.076102,23.4313725 172.859751,23.8235294 C173.643399,24.2156863 174.319296,24.6568627 174.887441,25.1470588 C175.455586,25.6372549 175.906183,26.2254902 176.239234,26.9117647 C176.572284,27.5980392 176.73881,28.4313725 176.73881,29.4117647 C176.73881,31.2941176 176.033526,32.8137255 174.622959,33.9705882 C173.212392,35.127451 171.23368,35.7058824 168.686823,35.7058824 C166.68852,35.7058824 164.758786,35.2647059 162.897622,34.3823529 C161.036457,33.5 159.420183,32.3333333 158.048798,30.8823529 L158.048798,30.8823529 L155.110117,34.2941176 C156.794961,36.0588235 158.793264,37.4509804 161.105026,38.4705882 C163.416789,39.4901961 165.924463,40 168.62805,40 Z M216.691811,39.2941176 L216.691811,35.1176471 L198.765857,35.1176471 L198.765857,21.1176471 L213.400488,21.1176471 L213.400488,16.9411765 L198.765857,16.9411765 L198.765857,4.82352941 L216.104075,4.82352941 L216.104075,0.705882353 L193.887646,0.705882353 L193.887646,39.2941176 L216.691811,39.2941176 Z M242.362823,39.2941176 L242.362823,4.82352941 L254,4.82352941 L254,0.705882353 L225.788662,0.705882353 L225.788662,4.82352941 L237.425839,4.82352941 L237.425839,39.2941176 L242.362823,39.2941176 Z" id="MINDSET"></path>
        </g>
    </g>
</svg>