<svg width="198" height="30" viewBox="0 0 198 30" fill="none" xmlns="http://www.w3.org/2000/svg">
<path d="M28.584 29V17.66C28.584 15.608 27.936 13.952 26.676 12.728C25.596 11.684 24.012 11.072 22.104 11.072C19.62 11.072 17.64 12.08 16.272 14.024C15.192 12.08 13.284 11.072 10.836 11.072C8.856 11.072 7.092 11.792 5.832 13.232V11.288H3.24V29H5.832V18.092C5.832 14.996 7.596 13.376 10.26 13.376C12.924 13.376 14.616 14.96 14.616 18.092V29H17.208V17.804C17.208 14.996 19.044 13.376 21.636 13.376C24.3 13.376 25.992 14.96 25.992 18.092V29H28.584ZM47.9126 20.828V19.676C47.9126 14.348 45.2486 11.072 40.6406 11.072C36.1406 11.072 33.3686 14.384 33.3686 20.144C33.3686 26.408 36.3926 29.216 41.1086 29.216C44.0966 29.216 45.7886 28.28 47.5886 26.48L45.8246 24.932C44.4206 26.336 43.2326 26.948 41.1806 26.948C37.7606 26.948 35.9606 24.716 35.9606 20.828H47.9126ZM45.3566 18.884H35.9606C36.0326 17.444 36.0686 16.868 36.5006 15.932C37.2566 14.312 38.7326 13.268 40.6406 13.268C42.5486 13.268 44.0246 14.312 44.7806 15.932C45.2126 16.868 45.2486 17.444 45.3566 18.884ZM66.0305 29V3.368H63.4385V13.34C61.9625 11.504 60.4145 11.072 58.4345 11.072C56.5985 11.072 55.0505 11.684 54.1145 12.62C52.3505 14.384 51.9545 17.3 51.9545 20.144C51.9545 22.988 52.3505 25.868 54.1145 27.668C55.0505 28.604 56.5985 29.216 58.4345 29.216C60.4505 29.216 61.9985 28.748 63.4745 26.876V29H66.0305ZM63.4385 20.144C63.4385 23.6 62.8625 26.912 59.0105 26.912C55.1225 26.912 54.5465 23.6 54.5465 20.144C54.5465 16.688 55.1225 13.376 59.0105 13.376C62.8625 13.376 63.4385 16.688 63.4385 20.144ZM74.5597 29V11.288H71.9677V29H74.5597ZM74.7397 6.248V3.332H71.8237V6.248H74.7397ZM87.302 29V26.768H85.934C84.278 26.768 83.522 25.796 83.522 24.176V13.268H87.302V11.288H83.522V5.852H80.93V11.288H78.698V13.268H80.93V24.248C80.93 26.876 82.442 29 85.466 29H87.302ZM104.371 29V16.976C104.371 13.16 102.067 11.072 97.2793 11.072C94.3633 11.072 92.5633 11.684 91.0153 13.736L92.7793 15.356C93.8593 13.88 95.0113 13.304 97.2433 13.304C100.519 13.304 101.779 14.636 101.779 17.192V18.884H96.4873C92.5273 18.884 90.3313 20.864 90.3313 23.996C90.3313 25.4 90.7633 26.732 91.6633 27.596C92.8873 28.784 94.2193 29.216 96.6673 29.216C99.0433 29.216 100.375 28.712 101.779 27.308V29H104.371ZM101.779 22.736C101.779 24.212 101.491 25.22 100.879 25.796C99.7273 26.84 98.4313 26.984 96.9553 26.984C94.1113 26.984 92.8513 26.012 92.8513 23.96C92.8513 21.872 94.1833 20.828 96.8473 20.828H101.779V22.736ZM116.949 29V26.768H115.581C113.925 26.768 113.169 25.796 113.169 24.176V13.268H116.949V11.288H113.169V5.852H110.577V11.288H108.345V13.268H110.577V24.248C110.577 26.876 112.089 29 115.113 29H116.949ZM134.954 20.828V19.676C134.954 14.348 132.29 11.072 127.682 11.072C123.182 11.072 120.41 14.384 120.41 20.144C120.41 26.408 123.434 29.216 128.15 29.216C131.138 29.216 132.83 28.28 134.63 26.48L132.866 24.932C131.462 26.336 130.274 26.948 128.222 26.948C124.802 26.948 123.002 24.716 123.002 20.828H134.954ZM132.398 18.884H123.002C123.074 17.444 123.11 16.868 123.542 15.932C124.298 14.312 125.774 13.268 127.682 13.268C129.59 13.268 131.066 14.312 131.822 15.932C132.254 16.868 132.29 17.444 132.398 18.884ZM154.657 29V26.768H153.253C151.453 26.768 150.877 25.904 150.877 24.176V3.368H148.285V24.284C148.285 26.984 149.689 29 152.785 29H154.657ZM160.991 29V11.288H158.399V29H160.991ZM161.171 6.248V3.332H158.255V6.248H161.171ZM179.385 11.288H176.577L171.717 25.508L166.893 11.288H164.085L170.565 29H172.869L179.385 11.288ZM195.711 20.828V19.676C195.711 14.348 193.047 11.072 188.439 11.072C183.939 11.072 181.167 14.384 181.167 20.144C181.167 26.408 184.191 29.216 188.907 29.216C191.895 29.216 193.587 28.28 195.387 26.48L193.623 24.932C192.219 26.336 191.031 26.948 188.979 26.948C185.559 26.948 183.759 24.716 183.759 20.828H195.711ZM193.155 18.884H183.759C183.831 17.444 183.867 16.868 184.299 15.932C185.055 14.312 186.531 13.268 188.439 13.268C190.347 13.268 191.823 14.312 192.579 15.932C193.011 16.868 193.047 17.444 193.155 18.884Z" fill="white"/>
<circle cx="159.5" cy="4.5" r="2" fill="#FF0000" stroke="white"/>
</svg>
