<svg width="104" height="17" viewBox="0 0 104 17" fill="none" xmlns="http://www.w3.org/2000/svg">
<mask id="path-1-inside-1" fill="white">
<path d="M16.5278 16.7391V9.34387C16.5278 8.00567 16.1053 6.92573 15.2836 6.12751C14.5793 5.44668 13.5463 5.04757 12.302 5.04757C10.6821 5.04757 9.39082 5.70492 8.4987 6.97268C7.79438 5.70492 6.5501 5.04757 4.95366 5.04757C3.66242 5.04757 2.51205 5.51711 1.69035 6.45619V5.18843H0V16.7391H1.69035V9.62559C1.69035 7.60656 2.84072 6.5501 4.57803 6.5501C6.31533 6.5501 7.41875 7.58309 7.41875 9.62559V16.7391H9.1091V9.43777C9.1091 7.60656 10.3064 6.5501 11.9968 6.5501C13.7341 6.5501 14.8375 7.58309 14.8375 9.62559V16.7391H16.5278Z"/>
<path d="M29.1328 11.4098V10.6586C29.1328 7.18398 27.3955 5.04757 24.3905 5.04757C21.4558 5.04757 19.6481 7.20745 19.6481 10.9638C19.6481 15.0488 21.6202 16.88 24.6957 16.88C26.6443 16.88 27.7477 16.2696 28.9215 15.0957L27.7712 14.0862C26.8556 15.0018 26.0808 15.4009 24.7426 15.4009C22.5123 15.4009 21.3384 13.9454 21.3384 11.4098H29.1328ZM27.466 10.1421H21.3384C21.3854 9.203 21.4089 8.82737 21.6906 8.21697C22.1836 7.1605 23.1462 6.47967 24.3905 6.47967C25.6347 6.47967 26.5973 7.1605 27.0903 8.21697C27.372 8.82737 27.3955 9.203 27.466 10.1421Z"/>
<path d="M40.9482 16.7391V0.0234781H39.2579V6.52662C38.2953 5.32929 37.2858 5.04757 35.9945 5.04757C34.7972 5.04757 33.7877 5.44668 33.1773 6.05708C32.0269 7.20745 31.7687 9.1091 31.7687 10.9638C31.7687 12.8185 32.0269 14.6966 33.1773 15.8705C33.7877 16.4809 34.7972 16.88 35.9945 16.88C37.3093 16.88 38.3188 16.5748 39.2813 15.354V16.7391H40.9482ZM39.2579 10.9638C39.2579 13.2176 38.8822 15.3775 36.3702 15.3775C33.8347 15.3775 33.459 13.2176 33.459 10.9638C33.459 8.70999 33.8347 6.5501 36.3702 6.5501C38.8822 6.5501 39.2579 8.70999 39.2579 10.9638Z"/>
<path d="M46.5104 16.7391V5.18843H44.8201V16.7391H46.5104ZM46.6278 1.90164V0H44.7262V1.90164H46.6278Z"/>
<path d="M54.8202 16.7391V15.2836H53.9281C52.8481 15.2836 52.3551 14.6497 52.3551 13.5932V6.47967H54.8202V5.18843H52.3551V1.64339H50.6648V5.18843H49.2092V6.47967H50.6648V13.6402C50.6648 15.354 51.6508 16.7391 53.6229 16.7391H54.8202Z"/>
<path d="M65.9518 16.7391V8.8978C65.9518 6.40923 64.4493 5.04757 61.3268 5.04757C59.4252 5.04757 58.2514 5.44668 57.2418 6.78487L58.3922 7.84134C59.0965 6.87878 59.8478 6.50314 61.3034 6.50314C63.4398 6.50314 64.2615 7.37179 64.2615 9.03866V10.1421H60.8103C58.2279 10.1421 56.7958 11.4333 56.7958 13.4758C56.7958 14.3914 57.0775 15.2601 57.6644 15.8235C58.4626 16.5983 59.3313 16.88 60.9277 16.88C62.4772 16.88 63.3459 16.5513 64.2615 15.6357V16.7391H65.9518ZM64.2615 12.6541C64.2615 13.6167 64.0737 14.274 63.6745 14.6497C62.9233 15.3305 62.0781 15.4244 61.1156 15.4244C59.2609 15.4244 58.4392 14.7905 58.4392 13.4523C58.4392 12.0907 59.3078 11.4098 61.0451 11.4098H64.2615V12.6541Z"/>
<path d="M74.1539 16.7391V15.2836H73.2618C72.1819 15.2836 71.6889 14.6497 71.6889 13.5932V6.47967H74.1539V5.18843H71.6889V1.64339H69.9985V5.18843H68.5429V6.47967H69.9985V13.6402C69.9985 15.354 70.9845 16.7391 72.9566 16.7391H74.1539Z"/>
<path d="M85.896 11.4098V10.6586C85.896 7.18398 84.1587 5.04757 81.1536 5.04757C78.219 5.04757 76.4112 7.20745 76.4112 10.9638C76.4112 15.0488 78.3833 16.88 81.4588 16.88C83.4074 16.88 84.5108 16.2696 85.6847 15.0957L84.5343 14.0862C83.6187 15.0018 82.8439 15.4009 81.5057 15.4009C79.2754 15.4009 78.1016 13.9454 78.1016 11.4098H85.896ZM84.2291 10.1421H78.1016C78.1485 9.203 78.172 8.82737 78.4537 8.21697C78.9467 7.1605 79.9093 6.47967 81.1536 6.47967C82.3979 6.47967 83.3604 7.1605 83.8534 8.21697C84.1352 8.82737 84.1587 9.203 84.2291 10.1421Z"/>
<path d="M103.534 10.8699C103.534 14.1114 100.906 16.7391 97.6646 16.7391C94.4231 16.7391 91.7953 14.1114 91.7953 10.8699C91.7953 7.62837 94.4231 5.00061 97.6646 5.00061C100.906 5.00061 103.534 7.62837 103.534 10.8699Z"/>
</mask>
<path d="M16.5278 16.7391V9.34387C16.5278 8.00567 16.1053 6.92573 15.2836 6.12751C14.5793 5.44668 13.5463 5.04757 12.302 5.04757C10.6821 5.04757 9.39082 5.70492 8.4987 6.97268C7.79438 5.70492 6.5501 5.04757 4.95366 5.04757C3.66242 5.04757 2.51205 5.51711 1.69035 6.45619V5.18843H0V16.7391H1.69035V9.62559C1.69035 7.60656 2.84072 6.5501 4.57803 6.5501C6.31533 6.5501 7.41875 7.58309 7.41875 9.62559V16.7391H9.1091V9.43777C9.1091 7.60656 10.3064 6.5501 11.9968 6.5501C13.7341 6.5501 14.8375 7.58309 14.8375 9.62559V16.7391H16.5278Z" fill="#FF0000"/>
<path d="M29.1328 11.4098V10.6586C29.1328 7.18398 27.3955 5.04757 24.3905 5.04757C21.4558 5.04757 19.6481 7.20745 19.6481 10.9638C19.6481 15.0488 21.6202 16.88 24.6957 16.88C26.6443 16.88 27.7477 16.2696 28.9215 15.0957L27.7712 14.0862C26.8556 15.0018 26.0808 15.4009 24.7426 15.4009C22.5123 15.4009 21.3384 13.9454 21.3384 11.4098H29.1328ZM27.466 10.1421H21.3384C21.3854 9.203 21.4089 8.82737 21.6906 8.21697C22.1836 7.1605 23.1462 6.47967 24.3905 6.47967C25.6347 6.47967 26.5973 7.1605 27.0903 8.21697C27.372 8.82737 27.3955 9.203 27.466 10.1421Z" fill="#FF0000"/>
<path d="M40.9482 16.7391V0.0234781H39.2579V6.52662C38.2953 5.32929 37.2858 5.04757 35.9945 5.04757C34.7972 5.04757 33.7877 5.44668 33.1773 6.05708C32.0269 7.20745 31.7687 9.1091 31.7687 10.9638C31.7687 12.8185 32.0269 14.6966 33.1773 15.8705C33.7877 16.4809 34.7972 16.88 35.9945 16.88C37.3093 16.88 38.3188 16.5748 39.2813 15.354V16.7391H40.9482ZM39.2579 10.9638C39.2579 13.2176 38.8822 15.3775 36.3702 15.3775C33.8347 15.3775 33.459 13.2176 33.459 10.9638C33.459 8.70999 33.8347 6.5501 36.3702 6.5501C38.8822 6.5501 39.2579 8.70999 39.2579 10.9638Z" fill="#FF0000"/>
<path d="M46.5104 16.7391V5.18843H44.8201V16.7391H46.5104ZM46.6278 1.90164V0H44.7262V1.90164H46.6278Z" fill="#FF0000"/>
<path d="M54.8202 16.7391V15.2836H53.9281C52.8481 15.2836 52.3551 14.6497 52.3551 13.5932V6.47967H54.8202V5.18843H52.3551V1.64339H50.6648V5.18843H49.2092V6.47967H50.6648V13.6402C50.6648 15.354 51.6508 16.7391 53.6229 16.7391H54.8202Z" fill="#FF0000"/>
<path d="M65.9518 16.7391V8.8978C65.9518 6.40923 64.4493 5.04757 61.3268 5.04757C59.4252 5.04757 58.2514 5.44668 57.2418 6.78487L58.3922 7.84134C59.0965 6.87878 59.8478 6.50314 61.3034 6.50314C63.4398 6.50314 64.2615 7.37179 64.2615 9.03866V10.1421H60.8103C58.2279 10.1421 56.7958 11.4333 56.7958 13.4758C56.7958 14.3914 57.0775 15.2601 57.6644 15.8235C58.4626 16.5983 59.3313 16.88 60.9277 16.88C62.4772 16.88 63.3459 16.5513 64.2615 15.6357V16.7391H65.9518ZM64.2615 12.6541C64.2615 13.6167 64.0737 14.274 63.6745 14.6497C62.9233 15.3305 62.0781 15.4244 61.1156 15.4244C59.2609 15.4244 58.4392 14.7905 58.4392 13.4523C58.4392 12.0907 59.3078 11.4098 61.0451 11.4098H64.2615V12.6541Z" fill="#FF0000"/>
<path d="M74.1539 16.7391V15.2836H73.2618C72.1819 15.2836 71.6889 14.6497 71.6889 13.5932V6.47967H74.1539V5.18843H71.6889V1.64339H69.9985V5.18843H68.5429V6.47967H69.9985V13.6402C69.9985 15.354 70.9845 16.7391 72.9566 16.7391H74.1539Z" fill="#FF0000"/>
<path d="M85.896 11.4098V10.6586C85.896 7.18398 84.1587 5.04757 81.1536 5.04757C78.219 5.04757 76.4112 7.20745 76.4112 10.9638C76.4112 15.0488 78.3833 16.88 81.4588 16.88C83.4074 16.88 84.5108 16.2696 85.6847 15.0957L84.5343 14.0862C83.6187 15.0018 82.8439 15.4009 81.5057 15.4009C79.2754 15.4009 78.1016 13.9454 78.1016 11.4098H85.896ZM84.2291 10.1421H78.1016C78.1485 9.203 78.172 8.82737 78.4537 8.21697C78.9467 7.1605 79.9093 6.47967 81.1536 6.47967C82.3979 6.47967 83.3604 7.1605 83.8534 8.21697C84.1352 8.82737 84.1587 9.203 84.2291 10.1421Z" fill="#FF0000"/>
<path d="M103.534 10.8699C103.534 14.1114 100.906 16.7391 97.6646 16.7391C94.4231 16.7391 91.7953 14.1114 91.7953 10.8699C91.7953 7.62837 94.4231 5.00061 97.6646 5.00061C100.906 5.00061 103.534 7.62837 103.534 10.8699Z" fill="#FF0000"/>
<path d="M16.5278 16.7391V9.34387C16.5278 8.00567 16.1053 6.92573 15.2836 6.12751C14.5793 5.44668 13.5463 5.04757 12.302 5.04757C10.6821 5.04757 9.39082 5.70492 8.4987 6.97268C7.79438 5.70492 6.5501 5.04757 4.95366 5.04757C3.66242 5.04757 2.51205 5.51711 1.69035 6.45619V5.18843H0V16.7391H1.69035V9.62559C1.69035 7.60656 2.84072 6.5501 4.57803 6.5501C6.31533 6.5501 7.41875 7.58309 7.41875 9.62559V16.7391H9.1091V9.43777C9.1091 7.60656 10.3064 6.5501 11.9968 6.5501C13.7341 6.5501 14.8375 7.58309 14.8375 9.62559V16.7391H16.5278Z" stroke="#18A0FB" stroke-width="4" mask="url(#path-1-inside-1)"/>
<path d="M29.1328 11.4098V10.6586C29.1328 7.18398 27.3955 5.04757 24.3905 5.04757C21.4558 5.04757 19.6481 7.20745 19.6481 10.9638C19.6481 15.0488 21.6202 16.88 24.6957 16.88C26.6443 16.88 27.7477 16.2696 28.9215 15.0957L27.7712 14.0862C26.8556 15.0018 26.0808 15.4009 24.7426 15.4009C22.5123 15.4009 21.3384 13.9454 21.3384 11.4098H29.1328ZM27.466 10.1421H21.3384C21.3854 9.203 21.4089 8.82737 21.6906 8.21697C22.1836 7.1605 23.1462 6.47967 24.3905 6.47967C25.6347 6.47967 26.5973 7.1605 27.0903 8.21697C27.372 8.82737 27.3955 9.203 27.466 10.1421Z" stroke="#18A0FB" stroke-width="4" mask="url(#path-1-inside-1)"/>
<path d="M40.9482 16.7391V0.0234781H39.2579V6.52662C38.2953 5.32929 37.2858 5.04757 35.9945 5.04757C34.7972 5.04757 33.7877 5.44668 33.1773 6.05708C32.0269 7.20745 31.7687 9.1091 31.7687 10.9638C31.7687 12.8185 32.0269 14.6966 33.1773 15.8705C33.7877 16.4809 34.7972 16.88 35.9945 16.88C37.3093 16.88 38.3188 16.5748 39.2813 15.354V16.7391H40.9482ZM39.2579 10.9638C39.2579 13.2176 38.8822 15.3775 36.3702 15.3775C33.8347 15.3775 33.459 13.2176 33.459 10.9638C33.459 8.70999 33.8347 6.5501 36.3702 6.5501C38.8822 6.5501 39.2579 8.70999 39.2579 10.9638Z" stroke="#18A0FB" stroke-width="4" mask="url(#path-1-inside-1)"/>
<path d="M46.5104 16.7391V5.18843H44.8201V16.7391H46.5104ZM46.6278 1.90164V0H44.7262V1.90164H46.6278Z" stroke="#18A0FB" stroke-width="4" mask="url(#path-1-inside-1)"/>
<path d="M54.8202 16.7391V15.2836H53.9281C52.8481 15.2836 52.3551 14.6497 52.3551 13.5932V6.47967H54.8202V5.18843H52.3551V1.64339H50.6648V5.18843H49.2092V6.47967H50.6648V13.6402C50.6648 15.354 51.6508 16.7391 53.6229 16.7391H54.8202Z" stroke="#18A0FB" stroke-width="4" mask="url(#path-1-inside-1)"/>
<path d="M65.9518 16.7391V8.8978C65.9518 6.40923 64.4493 5.04757 61.3268 5.04757C59.4252 5.04757 58.2514 5.44668 57.2418 6.78487L58.3922 7.84134C59.0965 6.87878 59.8478 6.50314 61.3034 6.50314C63.4398 6.50314 64.2615 7.37179 64.2615 9.03866V10.1421H60.8103C58.2279 10.1421 56.7958 11.4333 56.7958 13.4758C56.7958 14.3914 57.0775 15.2601 57.6644 15.8235C58.4626 16.5983 59.3313 16.88 60.9277 16.88C62.4772 16.88 63.3459 16.5513 64.2615 15.6357V16.7391H65.9518ZM64.2615 12.6541C64.2615 13.6167 64.0737 14.274 63.6745 14.6497C62.9233 15.3305 62.0781 15.4244 61.1156 15.4244C59.2609 15.4244 58.4392 14.7905 58.4392 13.4523C58.4392 12.0907 59.3078 11.4098 61.0451 11.4098H64.2615V12.6541Z" stroke="#18A0FB" stroke-width="4" mask="url(#path-1-inside-1)"/>
<path d="M74.1539 16.7391V15.2836H73.2618C72.1819 15.2836 71.6889 14.6497 71.6889 13.5932V6.47967H74.1539V5.18843H71.6889V1.64339H69.9985V5.18843H68.5429V6.47967H69.9985V13.6402C69.9985 15.354 70.9845 16.7391 72.9566 16.7391H74.1539Z" stroke="#18A0FB" stroke-width="4" mask="url(#path-1-inside-1)"/>
<path d="M85.896 11.4098V10.6586C85.896 7.18398 84.1587 5.04757 81.1536 5.04757C78.219 5.04757 76.4112 7.20745 76.4112 10.9638C76.4112 15.0488 78.3833 16.88 81.4588 16.88C83.4074 16.88 84.5108 16.2696 85.6847 15.0957L84.5343 14.0862C83.6187 15.0018 82.8439 15.4009 81.5057 15.4009C79.2754 15.4009 78.1016 13.9454 78.1016 11.4098H85.896ZM84.2291 10.1421H78.1016C78.1485 9.203 78.172 8.82737 78.4537 8.21697C78.9467 7.1605 79.9093 6.47967 81.1536 6.47967C82.3979 6.47967 83.3604 7.1605 83.8534 8.21697C84.1352 8.82737 84.1587 9.203 84.2291 10.1421Z" stroke="#18A0FB" stroke-width="4" mask="url(#path-1-inside-1)"/>
<path d="M103.534 10.8699C103.534 14.1114 100.906 16.7391 97.6646 16.7391C94.4231 16.7391 91.7953 14.1114 91.7953 10.8699C91.7953 7.62837 94.4231 5.00061 97.6646 5.00061C100.906 5.00061 103.534 7.62837 103.534 10.8699Z" stroke="#18A0FB" stroke-width="4" mask="url(#path-1-inside-1)"/>
</svg>
